{
	"asset":{
		"generator":"Khronos glTF Blender I/O v3.6.27",
		"version":"2.0"
	},
	"extensionsUsed":[
		"KHR_materials_specular",
		"KHR_materials_ior"
	],
	"scene":0,
	"scenes":[
		{
			"name":"Scene",
			"nodes":[
				0,
				1,
				2,
				3,
				4,
				5,
				6,
				7,
				8,
				9,
				10,
				11
			]
		}
	],
	"nodes":[
		{
			"mesh":0,
			"name":"GOlf 4",
			"rotation":[
				0.7071068286895752,
				0,
				0,
				0.7071068286895752
			],
			"scale":[
				0.16655924916267395,
				0.16655924916267395,
				0.16655924916267395
			],
			"translation":[
				12.051623344421387,
				0,
				43.00505065917969
			]
		},
		{
			"mesh":1,
			"name":"GOlf 4.001",
			"rotation":[
				0.7071068286895752,
				0,
				0,
				0.7071068286895752
			],
			"scale":[
				0.16655924916267395,
				0.16655924916267395,
				0.16655924916267395
			],
			"translation":[
				12.051623344421387,
				0,
				43.00505065917969
			]
		},
		{
			"mesh":2,
			"name":"GOlf 4.002",
			"rotation":[
				0.7071068286895752,
				0,
				0,
				0.7071068286895752
			],
			"scale":[
				0.16655924916267395,
				0.16655924916267395,
				0.16655924916267395
			],
			"translation":[
				12.051623344421387,
				0,
				43.00505065917969
			]
		},
		{
			"mesh":3,
			"name":"GOlf 4.003",
			"rotation":[
				0.7071068286895752,
				0,
				0,
				0.7071068286895752
			],
			"scale":[
				0.16655924916267395,
				0.16655924916267395,
				0.16655924916267395
			],
			"translation":[
				12.051623344421387,
				0,
				43.00505065917969
			]
		},
		{
			"mesh":4,
			"name":"GOlf 4.004",
			"rotation":[
				0.7071068286895752,
				0,
				0,
				0.7071068286895752
			],
			"scale":[
				0.16655924916267395,
				0.16655924916267395,
				0.16655924916267395
			],
			"translation":[
				12.051623344421387,
				0,
				43.00505065917969
			]
		},
		{
			"mesh":5,
			"name":"GOlf 4.005",
			"rotation":[
				0.7071068286895752,
				0,
				0,
				0.7071068286895752
			],
			"scale":[
				0.16655924916267395,
				0.16655924916267395,
				0.16655924916267395
			],
			"translation":[
				12.051623344421387,
				0,
				43.00505065917969
			]
		},
		{
			"mesh":6,
			"name":"GOlf 4.006",
			"rotation":[
				0.7071068286895752,
				0,
				0,
				0.7071068286895752
			],
			"scale":[
				0.16655924916267395,
				0.16655924916267395,
				0.16655924916267395
			],
			"translation":[
				12.051623344421387,
				0,
				43.00505065917969
			]
		},
		{
			"mesh":7,
			"name":"GOlf 4.007",
			"rotation":[
				0.7071068286895752,
				0,
				0,
				0.7071068286895752
			],
			"scale":[
				0.16655924916267395,
				0.16655924916267395,
				0.16655924916267395
			],
			"translation":[
				12.051623344421387,
				0,
				43.00505065917969
			]
		},
		{
			"mesh":8,
			"name":"GOlf 4.008",
			"rotation":[
				0.7071068286895752,
				0,
				0,
				0.7071068286895752
			],
			"scale":[
				0.16655924916267395,
				0.16655924916267395,
				0.16655924916267395
			],
			"translation":[
				12.051623344421387,
				0,
				43.00505065917969
			]
		},
		{
			"mesh":9,
			"name":"GOlf 4.009",
			"rotation":[
				0.7071068286895752,
				0,
				0,
				0.7071068286895752
			],
			"scale":[
				0.16655924916267395,
				0.16655924916267395,
				0.16655924916267395
			],
			"translation":[
				12.051623344421387,
				0,
				43.00505065917969
			]
		},
		{
			"mesh":10,
			"name":"GOlf 4.010",
			"rotation":[
				0.7071068286895752,
				0,
				0,
				0.7071068286895752
			],
			"scale":[
				0.16655924916267395,
				0.16655924916267395,
				0.16655924916267395
			],
			"translation":[
				12.051623344421387,
				0,
				43.00505065917969
			]
		},
		{
			"mesh":11,
			"name":"GOlf 4.011",
			"rotation":[
				0.7071068286895752,
				0,
				0,
				0.7071068286895752
			],
			"scale":[
				0.16655924916267395,
				0.16655924916267395,
				0.16655924916267395
			],
			"translation":[
				12.051623344421387,
				0,
				43.00505065917969
			]
		}
	],
	"materials":[
		{
			"alphaMode":"BLEND",
			"doubleSided":true,
			"extensions":{
				"KHR_materials_specular":{
					"specularColorFactor":[
						1.42281462520241,
						1.42281462520241,
						1.42281462520241
					]
				},
				"KHR_materials_ior":{
					"ior":1.4500000476837158
				}
			},
			"name":"Extra20121Mtl",
			"pbrMetallicRoughness":{
				"baseColorTexture":{
					"index":0
				},
				"metallicFactor":0
			}
		},
		{
			"alphaMode":"BLEND",
			"doubleSided":true,
			"extensions":{
				"KHR_materials_specular":{
					"specularColorFactor":[
						1.42281462520241,
						1.42281462520241,
						1.42281462520241
					]
				},
				"KHR_materials_ior":{
					"ior":1.4500000476837158
				}
			},
			"name":"Extra20091Mtl",
			"pbrMetallicRoughness":{
				"baseColorTexture":{
					"index":1
				},
				"metallicFactor":0
			}
		},
		{
			"alphaMode":"BLEND",
			"doubleSided":true,
			"extensions":{
				"KHR_materials_specular":{
					"specularColorFactor":[
						1.42281462520241,
						1.42281462520241,
						1.42281462520241
					]
				},
				"KHR_materials_ior":{
					"ior":1.4500000476837158
				}
			},
			"name":"Extra20111Mtl",
			"pbrMetallicRoughness":{
				"baseColorTexture":{
					"index":2
				},
				"metallicFactor":0
			}
		},
		{
			"alphaMode":"BLEND",
			"doubleSided":true,
			"extensions":{
				"KHR_materials_specular":{
					"specularColorFactor":[
						1.42281462520241,
						1.42281462520241,
						1.42281462520241
					]
				},
				"KHR_materials_ior":{
					"ior":1.4500000476837158
				}
			},
			"name":"Extra20041Mtl",
			"pbrMetallicRoughness":{
				"baseColorTexture":{
					"index":3
				},
				"metallicFactor":0
			}
		},
		{
			"alphaMode":"BLEND",
			"doubleSided":true,
			"extensions":{
				"KHR_materials_specular":{
					"specularColorFactor":[
						1.42281462520241,
						1.42281462520241,
						1.42281462520241
					]
				},
				"KHR_materials_ior":{
					"ior":1.4500000476837158
				}
			},
			"name":"Extra20071Mtl",
			"pbrMetallicRoughness":{
				"baseColorTexture":{
					"index":4
				},
				"metallicFactor":0
			}
		},
		{
			"alphaMode":"BLEND",
			"doubleSided":true,
			"extensions":{
				"KHR_materials_specular":{
					"specularColorFactor":[
						1.42281462520241,
						1.42281462520241,
						1.42281462520241
					]
				},
				"KHR_materials_ior":{
					"ior":1.4500000476837158
				}
			},
			"name":"Extra20081Mtl",
			"pbrMetallicRoughness":{
				"baseColorTexture":{
					"index":5
				},
				"metallicFactor":0
			}
		},
		{
			"doubleSided":true,
			"extensions":{
				"KHR_materials_specular":{
					"specularColorFactor":[
						0.5340210713505401,
						0.5340210713505401,
						0.5340210713505401
					]
				},
				"KHR_materials_ior":{
					"ior":1.4500000476837158
				}
			},
			"name":"Extra20161Mtl",
			"pbrMetallicRoughness":{
				"baseColorFactor":[
					0.37361499667167664,
					0.3685910105705261,
					0.383774995803833,
					1
				],
				"metallicFactor":0
			}
		},
		{
			"alphaMode":"BLEND",
			"doubleSided":true,
			"extensions":{
				"KHR_materials_specular":{
					"specularColorFactor":[
						1.42281462520241,
						1.42281462520241,
						1.42281462520241
					]
				},
				"KHR_materials_ior":{
					"ior":1.4500000476837158
				}
			},
			"name":"Extra20171Mtl",
			"pbrMetallicRoughness":{
				"baseColorTexture":{
					"index":6
				},
				"metallicFactor":0
			}
		},
		{
			"alphaMode":"BLEND",
			"doubleSided":true,
			"extensions":{
				"KHR_materials_specular":{
					"specularColorFactor":[
						1.42281462520241,
						1.42281462520241,
						1.42281462520241
					]
				},
				"KHR_materials_ior":{
					"ior":1.4500000476837158
				}
			},
			"name":"Extra20131Mtl",
			"pbrMetallicRoughness":{
				"baseColorTexture":{
					"index":7
				},
				"metallicFactor":0
			}
		},
		{
			"alphaMode":"BLEND",
			"doubleSided":true,
			"extensions":{
				"KHR_materials_specular":{
					"specularColorFactor":[
						1.42281462520241,
						1.42281462520241,
						1.42281462520241
					]
				},
				"KHR_materials_ior":{
					"ior":1.4500000476837158
				}
			},
			"name":"Extra20051Mtl",
			"pbrMetallicRoughness":{
				"baseColorTexture":{
					"index":8
				},
				"metallicFactor":0
			}
		},
		{
			"alphaMode":"BLEND",
			"doubleSided":true,
			"extensions":{
				"KHR_materials_specular":{
					"specularColorFactor":[
						1.42281462520241,
						1.42281462520241,
						1.42281462520241
					]
				},
				"KHR_materials_ior":{
					"ior":1.4500000476837158
				}
			},
			"name":"Extra21Mtl",
			"pbrMetallicRoughness":{
				"baseColorTexture":{
					"index":9
				},
				"metallicFactor":0
			}
		},
		{
			"alphaMode":"BLEND",
			"doubleSided":true,
			"extensions":{
				"KHR_materials_specular":{
					"specularColorFactor":[
						1.42281462520241,
						1.42281462520241,
						1.42281462520241
					]
				},
				"KHR_materials_ior":{
					"ior":1.4500000476837158
				}
			},
			"name":"Extra20141Mtl",
			"pbrMetallicRoughness":{
				"baseColorTexture":{
					"index":10
				},
				"metallicFactor":0
			}
		}
	],
	"meshes":[
		{
			"name":"GOlf 4",
			"primitives":[
				{
					"attributes":{
						"POSITION":0,
						"NORMAL":1,
						"TEXCOORD_0":2
					},
					"indices":3,
					"material":0
				}
			]
		},
		{
			"name":"GOlf 4.001",
			"primitives":[
				{
					"attributes":{
						"POSITION":4,
						"NORMAL":5,
						"TEXCOORD_0":6
					},
					"indices":7,
					"material":1
				}
			]
		},
		{
			"name":"GOlf 4.002",
			"primitives":[
				{
					"attributes":{
						"POSITION":8,
						"NORMAL":9,
						"TEXCOORD_0":10
					},
					"indices":11,
					"material":2
				}
			]
		},
		{
			"name":"GOlf 4.003",
			"primitives":[
				{
					"attributes":{
						"POSITION":12,
						"NORMAL":13,
						"TEXCOORD_0":14
					},
					"indices":15,
					"material":3
				}
			]
		},
		{
			"name":"GOlf 4.004",
			"primitives":[
				{
					"attributes":{
						"POSITION":16,
						"NORMAL":17,
						"TEXCOORD_0":18
					},
					"indices":19,
					"material":4
				}
			]
		},
		{
			"name":"GOlf 4.005",
			"primitives":[
				{
					"attributes":{
						"POSITION":20,
						"NORMAL":21,
						"TEXCOORD_0":22
					},
					"indices":23,
					"material":5
				}
			]
		},
		{
			"name":"GOlf 4.006",
			"primitives":[
				{
					"attributes":{
						"POSITION":24,
						"NORMAL":25,
						"TEXCOORD_0":26
					},
					"indices":27,
					"material":6
				}
			]
		},
		{
			"name":"GOlf 4.007",
			"primitives":[
				{
					"attributes":{
						"POSITION":28,
						"NORMAL":29,
						"TEXCOORD_0":30
					},
					"indices":31,
					"material":7
				}
			]
		},
		{
			"name":"GOlf 4.008",
			"primitives":[
				{
					"attributes":{
						"POSITION":32,
						"NORMAL":33,
						"TEXCOORD_0":34
					},
					"indices":35,
					"material":8
				}
			]
		},
		{
			"name":"GOlf 4.009",
			"primitives":[
				{
					"attributes":{
						"POSITION":36,
						"NORMAL":37,
						"TEXCOORD_0":38
					},
					"indices":39,
					"material":9
				}
			]
		},
		{
			"name":"GOlf 4.010",
			"primitives":[
				{
					"attributes":{
						"POSITION":40,
						"NORMAL":41,
						"TEXCOORD_0":42
					},
					"indices":43,
					"material":10
				}
			]
		},
		{
			"name":"GOlf 4.011",
			"primitives":[
				{
					"attributes":{
						"POSITION":44,
						"NORMAL":45,
						"TEXCOORD_0":46
					},
					"indices":47,
					"material":11
				}
			]
		}
	],
	"textures":[
		{
			"sampler":0,
			"source":0
		},
		{
			"sampler":0,
			"source":1
		},
		{
			"sampler":0,
			"source":2
		},
		{
			"sampler":0,
			"source":3
		},
		{
			"sampler":0,
			"source":4
		},
		{
			"sampler":0,
			"source":5
		},
		{
			"sampler":0,
			"source":6
		},
		{
			"sampler":0,
			"source":7
		},
		{
			"sampler":0,
			"source":8
		},
		{
			"sampler":0,
			"source":9
		},
		{
			"sampler":0,
			"source":10
		}
	],
	"images":[
		{
			"mimeType":"image/png",
			"name":"Extra20121_diff",
			"uri":"Extra20121_diff.png"
		},
		{
			"mimeType":"image/png",
			"name":"Extra20091_diff",
			"uri":"Extra20091_diff.png"
		},
		{
			"mimeType":"image/png",
			"name":"Extra20111_diff",
			"uri":"Extra20111_diff.png"
		},
		{
			"mimeType":"image/png",
			"name":"Extra20041_diff",
			"uri":"Extra20041_diff.png"
		},
		{
			"mimeType":"image/png",
			"name":"Extra20071_diff",
			"uri":"Extra20071_diff.png"
		},
		{
			"mimeType":"image/png",
			"name":"Extra20081_diff",
			"uri":"Extra20081_diff.png"
		},
		{
			"mimeType":"image/png",
			"name":"Extra20171_diff",
			"uri":"Extra20171_diff.png"
		},
		{
			"mimeType":"image/png",
			"name":"Extra20131_diff",
			"uri":"Extra20131_diff.png"
		},
		{
			"mimeType":"image/png",
			"name":"Extra20051_diff",
			"uri":"Extra20051_diff.png"
		},
		{
			"mimeType":"image/png",
			"name":"Extra21_diff",
			"uri":"Extra21_diff.png"
		},
		{
			"mimeType":"image/png",
			"name":"Extra20141_diff",
			"uri":"Extra20141_diff.png"
		}
	],
	"accessors":[
		{
			"bufferView":0,
			"componentType":5126,
			"count":15,
			"max":[
				-9.344860076904297,
				-54.14939880371094,
				-2.834630012512207
			],
			"min":[
				-10.11400032043457,
				-54.23939895629883,
				-3.301419973373413
			],
			"type":"VEC3"
		},
		{
			"bufferView":1,
			"componentType":5126,
			"count":15,
			"type":"VEC3"
		},
		{
			"bufferView":2,
			"componentType":5126,
			"count":15,
			"type":"VEC2"
		},
		{
			"bufferView":3,
			"componentType":5123,
			"count":36,
			"type":"SCALAR"
		},
		{
			"bufferView":4,
			"componentType":5126,
			"count":946,
			"max":[
				-8.118579864501953,
				-36.81919860839844,
				-2.5383100509643555
			],
			"min":[
				-15.175800323486328,
				-37.6952018737793,
				-3.2274599075317383
			],
			"type":"VEC3"
		},
		{
			"bufferView":5,
			"componentType":5126,
			"count":946,
			"type":"VEC3"
		},
		{
			"bufferView":6,
			"componentType":5126,
			"count":946,
			"type":"VEC2"
		},
		{
			"bufferView":7,
			"componentType":5123,
			"count":1944,
			"type":"SCALAR"
		},
		{
			"bufferView":8,
			"componentType":5126,
			"count":614,
			"max":[
				-8.16409969329834,
				-37.0797004699707,
				-2.578160047531128
			],
			"min":[
				-15.130200386047363,
				-54.01639938354492,
				-3.925649881362915
			],
			"type":"VEC3"
		},
		{
			"bufferView":9,
			"componentType":5126,
			"count":614,
			"type":"VEC3"
		},
		{
			"bufferView":10,
			"componentType":5126,
			"count":614,
			"type":"VEC2"
		},
		{
			"bufferView":11,
			"componentType":5123,
			"count":678,
			"type":"SCALAR"
		},
		{
			"bufferView":12,
			"componentType":5126,
			"count":1973,
			"max":[
				-7.407660007476807,
				-38.77629852294922,
				-0.14075399935245514
			],
			"min":[
				-15.816300392150879,
				-52.58649826049805,
				-2.8182899951934814
			],
			"type":"VEC3"
		},
		{
			"bufferView":13,
			"componentType":5126,
			"count":1973,
			"type":"VEC3"
		},
		{
			"bufferView":14,
			"componentType":5126,
			"count":1973,
			"type":"VEC2"
		},
		{
			"bufferView":15,
			"componentType":5123,
			"count":5040,
			"type":"SCALAR"
		},
		{
			"bufferView":16,
			"componentType":5126,
			"count":20072,
			"max":[
				-6.650010108947754,
				-36.300201416015625,
				-0.6730009913444519
			],
			"min":[
				-16.64430046081543,
				-54.712799072265625,
				-7.684140205383301
			],
			"type":"VEC3"
		},
		{
			"bufferView":17,
			"componentType":5126,
			"count":20072,
			"type":"VEC3"
		},
		{
			"bufferView":18,
			"componentType":5126,
			"count":20072,
			"type":"VEC2"
		},
		{
			"bufferView":19,
			"componentType":5123,
			"count":45933,
			"type":"SCALAR"
		},
		{
			"bufferView":20,
			"componentType":5126,
			"count":324,
			"max":[
				-8.943400382995605,
				-42.985801696777344,
				-2.6563799381256104
			],
			"min":[
				-10.968899726867676,
				-43.549198150634766,
				-4.44297981262207
			],
			"type":"VEC3"
		},
		{
			"bufferView":21,
			"componentType":5126,
			"count":324,
			"type":"VEC3"
		},
		{
			"bufferView":22,
			"componentType":5126,
			"count":324,
			"type":"VEC2"
		},
		{
			"bufferView":23,
			"componentType":5123,
			"count":552,
			"type":"SCALAR"
		},
		{
			"bufferView":24,
			"componentType":5126,
			"count":433,
			"max":[
				-7.511499881744385,
				-36.29930114746094,
				-0.7004889845848083
			],
			"min":[
				-15.720600128173828,
				-54.63840103149414,
				-2.156899929046631
			],
			"type":"VEC3"
		},
		{
			"bufferView":25,
			"componentType":5126,
			"count":433,
			"type":"VEC3"
		},
		{
			"bufferView":26,
			"componentType":5126,
			"count":433,
			"type":"VEC2"
		},
		{
			"bufferView":27,
			"componentType":5123,
			"count":696,
			"type":"SCALAR"
		},
		{
			"bufferView":28,
			"componentType":5126,
			"count":51,
			"max":[
				-10.319000244140625,
				-36.27840042114258,
				-1.8001199960708618
			],
			"min":[
				-12.957799911499023,
				-54.64440155029297,
				-2.3958098888397217
			],
			"type":"VEC3"
		},
		{
			"bufferView":29,
			"componentType":5126,
			"count":51,
			"type":"VEC3"
		},
		{
			"bufferView":30,
			"componentType":5126,
			"count":51,
			"type":"VEC2"
		},
		{
			"bufferView":31,
			"componentType":5123,
			"count":120,
			"type":"SCALAR"
		},
		{
			"bufferView":32,
			"componentType":5126,
			"count":771,
			"max":[
				-8.471059799194336,
				-36.26559829711914,
				-1.0593700408935547
			],
			"min":[
				-14.823399543762207,
				-54.67129898071289,
				-5.8562397956848145
			],
			"type":"VEC3"
		},
		{
			"bufferView":33,
			"componentType":5126,
			"count":771,
			"type":"VEC3"
		},
		{
			"bufferView":34,
			"componentType":5126,
			"count":771,
			"type":"VEC2"
		},
		{
			"bufferView":35,
			"componentType":5123,
			"count":1236,
			"type":"SCALAR"
		},
		{
			"bufferView":36,
			"componentType":5126,
			"count":17788,
			"max":[
				-7.437099933624268,
				-39.20199966430664,
				-0.5748509764671326
			],
			"min":[
				-15.792699813842773,
				-52.166099548339844,
				-2.383539915084839
			],
			"type":"VEC3"
		},
		{
			"bufferView":37,
			"componentType":5126,
			"count":17788,
			"type":"VEC3"
		},
		{
			"bufferView":38,
			"componentType":5126,
			"count":17788,
			"type":"VEC2"
		},
		{
			"bufferView":39,
			"componentType":5123,
			"count":44412,
			"type":"SCALAR"
		},
		{
			"bufferView":40,
			"componentType":5126,
			"count":807,
			"max":[
				-7.784470081329346,
				-36.80720138549805,
				-2.5378499031066895
			],
			"min":[
				-15.509900093078613,
				-54.09980010986328,
				-5.882319927215576
			],
			"type":"VEC3"
		},
		{
			"bufferView":41,
			"componentType":5126,
			"count":807,
			"type":"VEC3"
		},
		{
			"bufferView":42,
			"componentType":5126,
			"count":807,
			"type":"VEC2"
		},
		{
			"bufferView":43,
			"componentType":5123,
			"count":2274,
			"type":"SCALAR"
		},
		{
			"bufferView":44,
			"componentType":5126,
			"count":179,
			"max":[
				-7.800300121307373,
				-52.81850051879883,
				-3.028439998626709
			],
			"min":[
				-15.494000434875488,
				-54.09189987182617,
				-3.953819990158081
			],
			"type":"VEC3"
		},
		{
			"bufferView":45,
			"componentType":5126,
			"count":179,
			"type":"VEC3"
		},
		{
			"bufferView":46,
			"componentType":5126,
			"count":179,
			"type":"VEC2"
		},
		{
			"bufferView":47,
			"componentType":5123,
			"count":516,
			"type":"SCALAR"
		}
	],
	"bufferViews":[
		{
			"buffer":0,
			"byteLength":180,
			"byteOffset":0,
			"target":34962
		},
		{
			"buffer":0,
			"byteLength":180,
			"byteOffset":180,
			"target":34962
		},
		{
			"buffer":0,
			"byteLength":120,
			"byteOffset":360,
			"target":34962
		},
		{
			"buffer":0,
			"byteLength":72,
			"byteOffset":480,
			"target":34963
		},
		{
			"buffer":0,
			"byteLength":11352,
			"byteOffset":552,
			"target":34962
		},
		{
			"buffer":0,
			"byteLength":11352,
			"byteOffset":11904,
			"target":34962
		},
		{
			"buffer":0,
			"byteLength":7568,
			"byteOffset":23256,
			"target":34962
		},
		{
			"buffer":0,
			"byteLength":3888,
			"byteOffset":30824,
			"target":34963
		},
		{
			"buffer":0,
			"byteLength":7368,
			"byteOffset":34712,
			"target":34962
		},
		{
			"buffer":0,
			"byteLength":7368,
			"byteOffset":42080,
			"target":34962
		},
		{
			"buffer":0,
			"byteLength":4912,
			"byteOffset":49448,
			"target":34962
		},
		{
			"buffer":0,
			"byteLength":1356,
			"byteOffset":54360,
			"target":34963
		},
		{
			"buffer":0,
			"byteLength":23676,
			"byteOffset":55716,
			"target":34962
		},
		{
			"buffer":0,
			"byteLength":23676,
			"byteOffset":79392,
			"target":34962
		},
		{
			"buffer":0,
			"byteLength":15784,
			"byteOffset":103068,
			"target":34962
		},
		{
			"buffer":0,
			"byteLength":10080,
			"byteOffset":118852,
			"target":34963
		},
		{
			"buffer":0,
			"byteLength":240864,
			"byteOffset":128932,
			"target":34962
		},
		{
			"buffer":0,
			"byteLength":240864,
			"byteOffset":369796,
			"target":34962
		},
		{
			"buffer":0,
			"byteLength":160576,
			"byteOffset":610660,
			"target":34962
		},
		{
			"buffer":0,
			"byteLength":91866,
			"byteOffset":771236,
			"target":34963
		},
		{
			"buffer":0,
			"byteLength":3888,
			"byteOffset":863104,
			"target":34962
		},
		{
			"buffer":0,
			"byteLength":3888,
			"byteOffset":866992,
			"target":34962
		},
		{
			"buffer":0,
			"byteLength":2592,
			"byteOffset":870880,
			"target":34962
		},
		{
			"buffer":0,
			"byteLength":1104,
			"byteOffset":873472,
			"target":34963
		},
		{
			"buffer":0,
			"byteLength":5196,
			"byteOffset":874576,
			"target":34962
		},
		{
			"buffer":0,
			"byteLength":5196,
			"byteOffset":879772,
			"target":34962
		},
		{
			"buffer":0,
			"byteLength":3464,
			"byteOffset":884968,
			"target":34962
		},
		{
			"buffer":0,
			"byteLength":1392,
			"byteOffset":888432,
			"target":34963
		},
		{
			"buffer":0,
			"byteLength":612,
			"byteOffset":889824,
			"target":34962
		},
		{
			"buffer":0,
			"byteLength":612,
			"byteOffset":890436,
			"target":34962
		},
		{
			"buffer":0,
			"byteLength":408,
			"byteOffset":891048,
			"target":34962
		},
		{
			"buffer":0,
			"byteLength":240,
			"byteOffset":891456,
			"target":34963
		},
		{
			"buffer":0,
			"byteLength":9252,
			"byteOffset":891696,
			"target":34962
		},
		{
			"buffer":0,
			"byteLength":9252,
			"byteOffset":900948,
			"target":34962
		},
		{
			"buffer":0,
			"byteLength":6168,
			"byteOffset":910200,
			"target":34962
		},
		{
			"buffer":0,
			"byteLength":2472,
			"byteOffset":916368,
			"target":34963
		},
		{
			"buffer":0,
			"byteLength":213456,
			"byteOffset":918840,
			"target":34962
		},
		{
			"buffer":0,
			"byteLength":213456,
			"byteOffset":1132296,
			"target":34962
		},
		{
			"buffer":0,
			"byteLength":142304,
			"byteOffset":1345752,
			"target":34962
		},
		{
			"buffer":0,
			"byteLength":88824,
			"byteOffset":1488056,
			"target":34963
		},
		{
			"buffer":0,
			"byteLength":9684,
			"byteOffset":1576880,
			"target":34962
		},
		{
			"buffer":0,
			"byteLength":9684,
			"byteOffset":1586564,
			"target":34962
		},
		{
			"buffer":0,
			"byteLength":6456,
			"byteOffset":1596248,
			"target":34962
		},
		{
			"buffer":0,
			"byteLength":4548,
			"byteOffset":1602704,
			"target":34963
		},
		{
			"buffer":0,
			"byteLength":2148,
			"byteOffset":1607252,
			"target":34962
		},
		{
			"buffer":0,
			"byteLength":2148,
			"byteOffset":1609400,
			"target":34962
		},
		{
			"buffer":0,
			"byteLength":1432,
			"byteOffset":1611548,
			"target":34962
		},
		{
			"buffer":0,
			"byteLength":1032,
			"byteOffset":1612980,
			"target":34963
		}
	],
	"samplers":[
		{
			"magFilter":9729,
			"minFilter":9987
		}
	],
	"buffers":[
		{
			"byteLength":1614012,
			"uri":"untitled.bin"
		}
	]
}
